<mxfile host="app.diagrams.net" agent="Mozilla/5.0 (Macintosh; Intel Mac OS X 10_15_7) AppleWebKit/537.36 (KHTML, like Gecko) Chrome/131.0.0.0 Safari/537.36" version="26.0.8">
  <diagram name="Page-1" id="wikphwdbtVjNUA-3hFlz">
    <mxGraphModel dx="1951" dy="2137" grid="1" gridSize="10" guides="1" tooltips="1" connect="1" arrows="1" fold="1" page="1" pageScale="1" pageWidth="850" pageHeight="1100" math="0" shadow="0">
      <root>
        <mxCell id="0" />
        <mxCell id="1" parent="0" />
        <mxCell id="FCB02u2KYhcW3MbhH3qO-1" value="" style="html=1;overflow=block;blockSpacing=1;whiteSpace=wrap;container=1;pointerEvents=0;collapsible=0;recursiveResize=0;fontSize=13;spacing=0;strokeOpacity=0;fillOpacity=100;rounded=1;absoluteArcSize=1;arcSize=18;shadow=1;fillColor=#fafafa;strokeWidth=1.5;lucidId=UZ4DxH2zUSDl;" vertex="1" parent="1">
          <mxGeometry x="1359" y="1" width="354" height="720" as="geometry" />
        </mxCell>
        <mxCell id="FCB02u2KYhcW3MbhH3qO-2" value="Learn about this template" style="html=1;overflow=block;blockSpacing=1;whiteSpace=wrap;fontSize=20;fontColor=#666666;fontStyle=1;spacing=3.8;strokeOpacity=0;fillOpacity=0;fillColor=#ffffff;strokeWidth=1.5;lucidId=UZ4Dwcm6cYvK;" vertex="1" parent="FCB02u2KYhcW3MbhH3qO-1">
          <mxGeometry x="49" y="9" width="261" height="53" as="geometry" />
        </mxCell>
        <mxCell id="FCB02u2KYhcW3MbhH3qO-3" value="&lt;div style=&quot;display: flex; justify-content: flex-start; text-align: left; align-items: baseline; font-size: 0; line-height: 1.25;margin-top: -2px;&quot;&gt;&lt;span&gt;&lt;span style=&quot;font-size:16.7px;color:#666666;font-style: italic;&quot;&gt;Use this basic flowchart with swimlanes template to:&#xa;&lt;/span&gt;&lt;/span&gt;&lt;/div&gt;&lt;ul style=&quot;margin: 0px; padding-left: 10px;list-style-position: inside; list-style-type:disc&quot;&gt;&lt;li style=&quot;text-align:left;color:#666666;font-size:16.7px;&quot;&gt;&lt;span style=&quot;margin-left: 5.3px;margin-top: -2px;&quot;&gt;&lt;span style=&quot;font-size:16.7px;color:#666666;font-style: italic;&quot;&gt;Document your process.&lt;/span&gt;&lt;/span&gt;&lt;/li&gt;&lt;li style=&quot;text-align:left;color:#666666;font-size:16.7px;&quot;&gt;&lt;span style=&quot;margin-left: 5.3px;margin-top: -2px;&quot;&gt;&lt;span style=&quot;font-size:16.7px;color:#666666;font-style: italic;&quot;&gt;Use swimlanes to understand which department is responsible for performing each task.&lt;/span&gt;&lt;/span&gt;&lt;/li&gt;&lt;li style=&quot;text-align:left;color:#666666;font-size:16.7px;&quot;&gt;&lt;span style=&quot;margin-left: 5.3px;margin-top: -2px;&quot;&gt;&lt;span style=&quot;font-size:16.7px;color:#666666;font-style: italic;&quot;&gt;Access Lucidchart&#39;s flowchart shape library.&lt;/span&gt;&lt;/span&gt;&lt;/li&gt;&lt;/ul&gt;&lt;div style=&quot;display: flex; justify-content: flex-start; text-align: left; align-items: baseline; font-size: 0; line-height: 1.25;margin-top: -2px;&quot;&gt;&lt;span&gt;&lt;span style=&quot;font-size:16.7px;color:#666666;font-style: italic;&quot;&gt;&#xa;&lt;/span&gt;&lt;/span&gt;&lt;/div&gt;&lt;div style=&quot;display: flex; justify-content: center; text-align: center; align-items: baseline; font-size: 0; line-height: 1.25;margin-top: -2px;&quot;&gt;&lt;span&gt;&lt;span style=&quot;font-size:16.7px;color:#666666;font-style: italic;&quot;&gt;To customize this template: &#xa;&lt;/span&gt;&lt;/span&gt;&lt;/div&gt;&lt;ol style=&quot;margin: 0px; padding-left: 10px;list-style-position: inside; list-style-type:decimal&quot;&gt;&lt;li style=&quot;text-align:left;color:#666666;font-size:16.7px;&quot;&gt;&lt;span style=&quot;margin-left: 0px;margin-top: -2px;&quot;&gt;&lt;span style=&quot;font-size:16.7px;color:#666666;font-style: italic;&quot;&gt;Click on a shape and type the information you would like to include.&lt;/span&gt;&lt;/span&gt;&lt;/li&gt;&lt;li style=&quot;text-align:left;color:#666666;font-size:16.7px;&quot;&gt;&lt;span style=&quot;margin-left: 0px;margin-top: -2px;&quot;&gt;&lt;span style=&quot;font-size:16.7px;color:#666666;font-style: italic;&quot;&gt;Adjust the swimlanes:&lt;/span&gt;&lt;/span&gt;&lt;/li&gt;&lt;li style=&quot;text-align:left;color:#666666;font-size:16.7px;&quot;&gt;&lt;span style=&quot;margin-left: 0px;margin-top: -2px;&quot;&gt;&lt;span style=&quot;font-size:16.7px;color:#666666;font-style: italic;&quot;&gt;Click on the swimlane shape.&lt;/span&gt;&lt;/span&gt;&lt;/li&gt;&lt;li style=&quot;text-align:left;color:#666666;font-size:16.7px;&quot;&gt;&lt;span style=&quot;margin-left: 0px;margin-top: -2px;&quot;&gt;&lt;span style=&quot;font-size:16.7px;color:#666666;font-style: italic;&quot;&gt;Adjust the amount of lanes, their orientation, and their color using advanced option bar at the top of the canvas.&lt;/span&gt;&lt;/span&gt;&lt;/li&gt;&lt;li style=&quot;text-align:left;color:#666666;font-size:16.7px;&quot;&gt;&lt;span style=&quot;margin-left: 0px;margin-top: -2px;&quot;&gt;&lt;span style=&quot;font-size:16.7px;color:#666666;font-style: italic;&quot;&gt;Add and arrange shapes as needed.&lt;/span&gt;&lt;/span&gt;&lt;/li&gt;&lt;/ol&gt;&lt;div style=&quot;display: flex; justify-content: flex-start; text-align: left; align-items: baseline; font-size: 0; line-height: 1.25;margin-top: -2px;&quot;&gt;&lt;span&gt;&lt;span style=&quot;font-size:16.7px;color:#666666;font-style: italic;&quot;&gt;&#xa;&lt;/span&gt;&lt;/span&gt;&lt;/div&gt;&lt;div style=&quot;display: flex; justify-content: flex-start; text-align: left; align-items: baseline; font-size: 0; line-height: 1.25;margin-top: -2px;&quot;&gt;&lt;span&gt;&lt;span style=&quot;font-size:16.7px;color:#666666;font-style: italic;&quot;&gt;Pro tip: Turn on auto tiling (in the page settings     tab to the right of the canvas) to allow the canvas to automatically adjust.&lt;/span&gt;&lt;/span&gt;&lt;/div&gt;" style="html=1;overflow=block;blockSpacing=1;whiteSpace=wrap;fontSize=13;spacing=0;verticalAlign=top;strokeOpacity=0;fillOpacity=0;fillColor=#ffffff;strokeWidth=1.5;lucidId=UZ4DwXG~putH;" vertex="1" parent="FCB02u2KYhcW3MbhH3qO-1">
          <mxGeometry x="30" y="62" width="297" height="480" as="geometry" />
        </mxCell>
        <mxCell id="FCB02u2KYhcW3MbhH3qO-4" value="&lt;div style=&quot;display: flex; justify-content: center; text-align: center; align-items: baseline; font-size: 0; line-height: 1.25;margin-top: -2px;&quot;&gt;&lt;span&gt;&lt;span style=&quot;font-size:16.7px;color:#666666;font-weight: bold;&quot;&gt;Tutorials&lt;/span&gt;&lt;span style=&quot;font-size:16.7px;color:#666666;&quot;&gt;&#xa;&lt;/span&gt;&lt;/span&gt;&lt;/div&gt;&lt;div style=&quot;display: flex; justify-content: center; text-align: center; align-items: baseline; font-size: 0; line-height: 1.25;margin-top: -2px;&quot;&gt;&lt;span&gt;&lt;span style=&quot;font-size:16.7px;color:#666666;&quot;&gt;&lt;span style=&quot;font-size:16.7px;color:#666666;font-style: italic;&quot;&gt;(Hold Shift + âŒ˜ or Ctrl, then click)&lt;/span&gt;&lt;/span&gt;&lt;/span&gt;&lt;/div&gt;" style="html=1;overflow=block;blockSpacing=1;whiteSpace=wrap;fontSize=13;spacing=3.8;verticalAlign=top;strokeOpacity=0;fillOpacity=0;fillColor=#ffffff;strokeWidth=1.5;lucidId=UZ4Do3V.5jQv;" vertex="1" parent="FCB02u2KYhcW3MbhH3qO-1">
          <mxGeometry y="569" width="354" height="63" as="geometry" />
        </mxCell>
        <UserObject label="Watch Lucidchart basic tutorials" link="https://www.youtube.com/playlist?list=PLUoebdZqEHTz0aKtk6dygh4dQIz6WDP99" id="FCB02u2KYhcW3MbhH3qO-5">
          <mxCell style="html=1;overflow=block;blockSpacing=1;whiteSpace=wrap;rounded=1;arcSize=25;fontSize=16.7;fontColor=#ffffff;spacing=0;strokeOpacity=0;fillOpacity=100;shadow=1;fillColor=#77818c;strokeWidth=1.5;lucidId=UZ4D2TXcyd5k;" vertex="1" parent="FCB02u2KYhcW3MbhH3qO-1">
            <mxGeometry x="30" y="632" width="297" height="56" as="geometry" />
          </mxCell>
        </UserObject>
        <mxCell id="FCB02u2KYhcW3MbhH3qO-6" value="" style="shape=image;verticalLabelPosition=bottom;labelBackgroundColor=default;verticalAlign=top;aspect=fixed;imageAspect=0;image=data:image/svg+xml,PHN2ZyB2aWV3Qm94PSIwIDAgMSAxIiB4bWxucz0iaHR0cDovL3d3dy53My5vcmcvMjAwMC9zdmciPjxwYXRoIGQ9Ik0gMC41MDUgMC41IEwgMC41MDUgMC41IEMgMC41MjIgMC40NjEgMC41NzYgMC40NCAwLjYyNSAwLjQ1NCAwLjY1MyAwLjQ2MiAwLjY3MiAwLjQ3OCAwLjY4MiAwLjUgTCAwLjc4MSAwLjUgTCAwLjc4MSAwLjUgQyAwLjc5OSAwLjUgMC44MTMgMC41MTEgMC44MTMgMC41MjUgMC44MTMgMC41MzkgMC43OTkgMC41NSAwLjc4MSAwLjU1IEwgMC42ODIgMC41NSBMIDAuNjgyIDAuNTUgQyAwLjY2NSAwLjU4OSAwLjYxMSAwLjYxIDAuNTYzIDAuNTk2IDAuNTM1IDAuNTg4IDAuNTE1IDAuNTcyIDAuNTA1IDAuNTUgTCAwLjIxOSAwLjU1IEwgMC4yMTkgMC41NSBDIDAuMjAxIDAuNTUgMC4xODggMC41MzkgMC4xODggMC41MjUgMC4xODggMC41MTEgMC4yMDEgMC41IDAuMjE5IDAuNSBMIDAuNTA1IDAuNSBaIE0gMC4yNTUgMC43IEwgMC4yNTUgMC43IEMgMC4yNzIgMC42NjEgMC4zMjYgMC42NCAwLjM3NSAwLjY1NCAwLjQwMyAwLjY2MiAwLjQyMiAwLjY3OCAwLjQzMiAwLjcgTCAwLjc4MSAwLjcgTCAwLjc4MSAwLjcgQyAwLjc5OSAwLjcgMC44MTMgMC43MTEgMC44MTMgMC43MjUgMC44MTMgMC43MzkgMC43OTkgMC43NSAwLjc4MSAwLjc1IEwgMC40MzIgMC43NSBMIDAuNDMyIDAuNzUgQyAwLjQxNSAwLjc4OSAwLjM2MSAwLjgxIDAuMzEzIDAuNzk2IDAuMjg1IDAuNzg4IDAuMjY1IDAuNzcyIDAuMjU1IDAuNzUgTCAwLjIxOSAwLjc1IEwgMC4yMTkgMC43NSBDIDAuMjAxIDAuNzUgMC4xODggMC43MzkgMC4xODggMC43MjUgMC4xODggMC43MTEgMC4yMDEgMC43IDAuMjE5IDAuNyBMIDAuMjU1IDAuNyBaIE0gMC4xMjUgMCBMIDAuNzUgMCBMIDEgMC4yNSBMIDEgMC45IEwgMSAwLjkgQyAxIDAuOTU1IDAuOTQ0IDEgMC44NzUgMSBMIDAuMTI1IDEgTCAwLjEyNSAxIEMgMC4wNTYgMSAwIDAuOTU1IDAgMC45IEwgMCAwLjEgTCAwIDAuMSBDIDAgMC4wNDUgMC4wNTYgMCAwLjEyNSAwIFogTSAwLjYyNSAwLjEgTCAwLjEyNSAwLjEgTCAwLjEyNSAwLjkgTCAwLjg3NSAwLjkgTCAwLjg3NSAwLjMgTCAwLjYyNSAwLjMgTCAwLjYyNSAwLjEgWiAiIGZpbGw9IiM2NjY2NjZmZiIgc3Ryb2tlPSIjMDAwMDAwMDAiIHN0cm9rZS13aWR0aD0iMC4wNjI1Ii8+PC9zdmc+;html=1;" vertex="1" parent="FCB02u2KYhcW3MbhH3qO-1">
          <mxGeometry x="94" y="483" width="12" height="15" as="geometry" />
        </mxCell>
        <mxCell id="FCB02u2KYhcW3MbhH3qO-7" value="" style="html=1;overflow=block;blockSpacing=1;whiteSpace=wrap;shape=image;fontSize=13;spacing=0;strokeColor=none;strokeOpacity=100;rotation=-32.727216831744876;shadow=1;strokeWidth=0;image=https://images.lucidchart.com/images/6963b982-d0f2-4a5e-8b90-dfdbc8848869/content;imageAspect=0;lucidId=UZ4DJbEyCTyT;" vertex="1" parent="FCB02u2KYhcW3MbhH3qO-1">
          <mxGeometry x="268" y="664" width="47" height="47" as="geometry" />
        </mxCell>
        <mxCell id="FCB02u2KYhcW3MbhH3qO-8" value="" style="fillColor=none;strokeColor=none;pointerEvents=0;fontStyle=0;html=1;whiteSpace=wrap;container=1;collapsible=0;childLayout=stackLayout;resizeParent=1;dropTarget=0;horizontalStack=0;fontSize=13;spacing=0;strokeOpacity=100;fillOpacity=100;rounded=1;absoluteArcSize=1;arcSize=12;horizontal=0;strokeWidth=0.8;" vertex="1" parent="1">
          <mxGeometry x="165" y="149" width="1017.3286123593632" height="1345.2217157587033" isRotated="1" as="geometry" />
        </mxCell>
        <mxCell id="FCB02u2KYhcW3MbhH3qO-9" value="Blade" style="swimlane;html=1;whiteSpace=wrap;container=1;connectable=0;collapsible=0;startSize=30;dropTarget=0;rounded=0;horizontal=0;spacing=0;strokeColor=#999999;strokeOpacity=100;fillOpacity=100;strokeWidth=0.8;fontSize=17.4;fontColor=#ffffff;fontStyle=3;fillColor=#ef8d22;" vertex="1" parent="FCB02u2KYhcW3MbhH3qO-8">
          <mxGeometry width="1017.3286123593632" height="226.48844007440857" as="geometry" />
        </mxCell>
        <mxCell id="FCB02u2KYhcW3MbhH3qO-10" value="View" style="swimlane;html=1;whiteSpace=wrap;container=1;connectable=0;collapsible=0;startSize=30;dropTarget=0;rounded=0;horizontal=0;spacing=0;strokeColor=#999999;strokeOpacity=100;fillOpacity=100;strokeWidth=0.8;fontSize=17.4;fontColor=#ffffff;fontStyle=1;fillColor=#19967d;swimlaneFillColor=#e5e5e5;" vertex="1" parent="FCB02u2KYhcW3MbhH3qO-8">
          <mxGeometry y="226.48844007440857" width="1017.3286123593632" height="428.7332756842942" as="geometry" />
        </mxCell>
        <mxCell id="FCB02u2KYhcW3MbhH3qO-11" value="Controller" style="swimlane;html=1;whiteSpace=wrap;container=1;connectable=0;collapsible=0;startSize=30;dropTarget=0;rounded=0;horizontal=0;spacing=0;strokeColor=#999999;strokeOpacity=100;fillOpacity=100;strokeWidth=0.8;fontSize=17.4;fontColor=#333333;fontStyle=1;fillColor=#75b2ff;" vertex="1" parent="FCB02u2KYhcW3MbhH3qO-8">
          <mxGeometry y="655.2217157587028" width="1017.3286123593632" height="690.0000000000005" as="geometry" />
        </mxCell>
        <mxCell id="FCB02u2KYhcW3MbhH3qO-12" value="Page Load" style="html=1;overflow=block;blockSpacing=1;whiteSpace=wrap;rounded=1;arcSize=50;fontSize=13.5;fontColor=#ffffff;fontStyle=2;align=center;spacingLeft=9.7;spacingRight=9.7;spacingTop=2.8;spacing=3.8;strokeOpacity=0;fillOpacity=100;fillColor=#ef8d22;strokeWidth=1.5;lucidId=L_e-jBUy_XVQ;" vertex="1" parent="1">
          <mxGeometry x="210" y="165" width="120" height="60" as="geometry" />
        </mxCell>
        <mxCell id="FCB02u2KYhcW3MbhH3qO-13" value="" style="html=1;jettySize=18;whiteSpace=wrap;fontSize=13;strokeColor=#666666;strokeOpacity=100;strokeWidth=0.8;rounded=1;arcSize=24;edgeStyle=orthogonalEdgeStyle;startArrow=none;endArrow=block;endFill=1;exitX=1;exitY=0.5;exitPerimeter=0;entryX=0.012;entryY=0.5;entryPerimeter=0;lucidId=L_e-mbCI4-yM;" edge="1" parent="1" source="FCB02u2KYhcW3MbhH3qO-12" target="FCB02u2KYhcW3MbhH3qO-14">
          <mxGeometry width="100" height="100" relative="1" as="geometry">
            <Array as="points" />
          </mxGeometry>
        </mxCell>
        <mxCell id="FCB02u2KYhcW3MbhH3qO-14" value="Mobile?" style="html=1;overflow=block;blockSpacing=1;whiteSpace=wrap;rhombus;fontSize=13.5;fontColor=#333333;fontStyle=2;align=center;spacingLeft=9.7;spacingRight=9.7;spacingTop=2.8;spacing=3.8;strokeColor=#ef8d22;strokeOpacity=100;fillOpacity=100;rounded=1;absoluteArcSize=1;arcSize=12;fillColor=#ffffff;strokeWidth=3;lucidId=L_e-~BkObtgw;" vertex="1" parent="1">
          <mxGeometry x="420" y="150" width="120" height="90" as="geometry" />
        </mxCell>
        <mxCell id="FCB02u2KYhcW3MbhH3qO-15" value="" style="group;dropTarget=0;pointerEvents=0;" vertex="1" parent="1">
          <mxGeometry x="405" y="60" width="510" height="45" as="geometry" />
        </mxCell>
        <mxCell id="FCB02u2KYhcW3MbhH3qO-16" value="Messaging for Lotto" style="points=[[0.163,0.967,0],[0.846,0.967,0]];html=1;overflow=block;blockSpacing=1;whiteSpace=wrap;fontSize=19.7;fontColor=#b2b2b2;fontStyle=1;align=center;spacingLeft=7;spacingRight=7;spacingTop=2;spacing=3;strokeOpacity=0;fillOpacity=0;rounded=1;absoluteArcSize=1;arcSize=12;fillColor=#ffffff;strokeWidth=1.5;lucidId=L_e-XcQMJGJ5;" vertex="1" parent="FCB02u2KYhcW3MbhH3qO-15">
          <mxGeometry width="510" height="31" as="geometry" />
        </mxCell>
        <UserObject label="%creatorName%  |  %date{mmmm d, yyyy}%" placeholders="1" id="FCB02u2KYhcW3MbhH3qO-17">
          <mxCell style="html=1;overflow=block;blockSpacing=1;whiteSpace=wrap;fontSize=11.5;fontColor=#b2b2b2;align=center;spacingLeft=7;spacingRight=7;spacingTop=2;spacing=3;strokeOpacity=0;fillOpacity=0;rounded=1;absoluteArcSize=1;arcSize=12;fillColor=#ffffff;strokeWidth=1.5;lucidId=L_e-lLxGlZjI;" vertex="1" parent="FCB02u2KYhcW3MbhH3qO-15">
            <mxGeometry y="31" width="510" height="14" as="geometry" />
          </mxCell>
        </UserObject>
        <mxCell id="FCB02u2KYhcW3MbhH3qO-18" value="" style="html=1;jettySize=18;whiteSpace=wrap;fontSize=13;fontFamily=Helvetica;strokeColor=#b2b2b2;strokeOpacity=100;strokeWidth=1.5;rounded=0;startArrow=none;endArrow=none;exitX=0.163;exitY=0.967;exitPerimeter=0;entryX=0.846;entryY=0.967;entryPerimeter=0;lucidId=L_e-vnmLVV-S;" edge="1" parent="FCB02u2KYhcW3MbhH3qO-15" source="FCB02u2KYhcW3MbhH3qO-16" target="FCB02u2KYhcW3MbhH3qO-16">
          <mxGeometry width="100" height="100" relative="1" as="geometry">
            <Array as="points">
              <mxPoint x="83" y="50" generated="1" />
              <mxPoint x="432" y="50" generated="1" />
            </Array>
          </mxGeometry>
        </mxCell>
        <mxCell id="FCB02u2KYhcW3MbhH3qO-19" value="Load  MOBILE Message Lightbox Frame " style="html=1;overflow=block;blockSpacing=1;whiteSpace=wrap;fontSize=13.5;fontColor=#ffffff;align=center;spacingLeft=9.7;spacingRight=9.7;spacingTop=2.8;spacing=3.8;strokeOpacity=0;fillOpacity=100;rounded=1;absoluteArcSize=1;arcSize=12;fillColor=#ef8d22;strokeWidth=1.5;lucidId=L_e-rDl4aYTo;" vertex="1" parent="1">
          <mxGeometry x="647" y="158" width="210" height="75" as="geometry" />
        </mxCell>
        <mxCell id="FCB02u2KYhcW3MbhH3qO-20" value="Load  DESKTOP Message Lightbox Frame " style="html=1;overflow=block;blockSpacing=1;whiteSpace=wrap;fontSize=13.5;fontColor=#ffffff;align=center;spacingLeft=9.7;spacingRight=9.7;spacingTop=2.8;spacing=3.8;strokeOpacity=0;fillOpacity=100;rounded=1;absoluteArcSize=1;arcSize=12;fillColor=#ef8d22;strokeWidth=1.5;lucidId=sfGdc7NPvd0d;" vertex="1" parent="1">
          <mxGeometry x="645" y="270" width="210" height="75" as="geometry" />
        </mxCell>
        <mxCell id="FCB02u2KYhcW3MbhH3qO-21" value="" style="html=1;jettySize=18;whiteSpace=wrap;fontSize=13;fontColor=#666666;align=center;strokeColor=#666666;strokeOpacity=100;strokeWidth=0.8;rounded=1;arcSize=24;edgeStyle=orthogonalEdgeStyle;startArrow=none;endArrow=block;endFill=1;exitX=0.988;exitY=0.5;exitPerimeter=0;entryX=0;entryY=0.5;entryPerimeter=0;lucidId=BgGdRejrWagh;" edge="1" parent="1" source="FCB02u2KYhcW3MbhH3qO-14" target="FCB02u2KYhcW3MbhH3qO-19">
          <mxGeometry width="100" height="100" relative="1" as="geometry">
            <Array as="points" />
          </mxGeometry>
        </mxCell>
        <mxCell id="FCB02u2KYhcW3MbhH3qO-22" value="Yes" style="text;html=1;resizable=0;labelBackgroundColor=default;align=center;verticalAlign=middle;fontColor=#666666;fontSize=13;" vertex="1" parent="FCB02u2KYhcW3MbhH3qO-21">
          <mxGeometry relative="1" as="geometry" />
        </mxCell>
        <mxCell id="FCB02u2KYhcW3MbhH3qO-23" value="" style="html=1;jettySize=18;whiteSpace=wrap;fontSize=13;fontColor=#666666;align=center;strokeColor=#666666;strokeOpacity=100;strokeWidth=0.8;rounded=1;arcSize=24;edgeStyle=orthogonalEdgeStyle;startArrow=none;endArrow=block;endFill=1;exitX=0.5;exitY=0.994;exitPerimeter=0;entryX=0;entryY=0.5;entryPerimeter=0;lucidId=HgGd36epz9_H;" edge="1" parent="1" source="FCB02u2KYhcW3MbhH3qO-14" target="FCB02u2KYhcW3MbhH3qO-20">
          <mxGeometry width="100" height="100" relative="1" as="geometry">
            <Array as="points" />
          </mxGeometry>
        </mxCell>
        <mxCell id="FCB02u2KYhcW3MbhH3qO-24" value="No" style="text;html=1;resizable=0;labelBackgroundColor=default;align=center;verticalAlign=middle;fontColor=#666666;fontSize=13;" vertex="1" parent="FCB02u2KYhcW3MbhH3qO-23">
          <mxGeometry relative="1" as="geometry" />
        </mxCell>
        <mxCell id="FCB02u2KYhcW3MbhH3qO-25" value="Done" style="html=1;overflow=block;blockSpacing=1;whiteSpace=wrap;rounded=1;arcSize=50;fontSize=13.5;fontColor=#3278ca;fontStyle=3;align=center;spacingLeft=9.7;spacingRight=9.7;spacingTop=2.8;spacing=3.8;strokeColor=#3278ca;strokeOpacity=100;fillOpacity=100;fillColor=#ffffff;strokeWidth=1.5;lucidId=EMGdI7Q3dbeI;" vertex="1" parent="1">
          <mxGeometry x="1020" y="886" width="120" height="45" as="geometry" />
        </mxCell>
        <mxCell id="FCB02u2KYhcW3MbhH3qO-26" value="InitMessages" style="html=1;overflow=block;blockSpacing=1;whiteSpace=wrap;fontSize=13.5;fontColor=#ffffff;align=center;spacingLeft=9.7;spacingRight=9.7;spacingTop=2.8;spacing=3.8;strokeOpacity=0;fillOpacity=100;rounded=1;absoluteArcSize=1;arcSize=12;fillColor=#19967d;strokeWidth=1.5;lucidId=BeJderkbO2Y_;" vertex="1" parent="1">
          <mxGeometry x="218" y="394" width="135" height="51" as="geometry" />
        </mxCell>
        <mxCell id="FCB02u2KYhcW3MbhH3qO-27" value="Desktop?" style="html=1;overflow=block;blockSpacing=1;whiteSpace=wrap;rhombus;fontSize=13.5;fontColor=#333333;fontStyle=2;align=center;spacingLeft=9.7;spacingRight=9.7;spacingTop=2.8;spacing=3.8;strokeColor=#19967d;strokeOpacity=100;fillOpacity=100;rounded=1;absoluteArcSize=1;arcSize=12;fillColor=#ffffff;strokeWidth=3;lucidId=TPGdzlJxNMJd;" vertex="1" parent="1">
          <mxGeometry x="420" y="383" width="105" height="75" as="geometry" />
        </mxCell>
        <mxCell id="FCB02u2KYhcW3MbhH3qO-28" value="Count Group Message Totals" style="html=1;overflow=block;blockSpacing=1;whiteSpace=wrap;shape=display;fontSize=13.5;fontColor=#ffffff;align=center;spacingLeft=9.7;spacingRight=9.7;spacingTop=2.8;spacing=3.8;strokeOpacity=0;fillOpacity=100;rounded=1;absoluteArcSize=1;arcSize=12;fillColor=#19967d;strokeWidth=1.5;lucidId=ZcJd--rCt-z2;" vertex="1" parent="1">
          <mxGeometry x="585" y="390" width="135" height="60" as="geometry" />
        </mxCell>
        <mxCell id="FCB02u2KYhcW3MbhH3qO-29" value="" style="html=1;jettySize=18;whiteSpace=wrap;fontSize=13;fontColor=#666666;align=center;strokeColor=#666666;strokeOpacity=100;strokeWidth=0.8;rounded=1;arcSize=24;edgeStyle=orthogonalEdgeStyle;startArrow=none;endArrow=block;endFill=1;exitX=0.985;exitY=0.5;exitPerimeter=0;entryX=0.017;entryY=0.497;entryPerimeter=0;lucidId=TPGdM8wB.tPs;" edge="1" parent="1" source="FCB02u2KYhcW3MbhH3qO-27" target="FCB02u2KYhcW3MbhH3qO-28">
          <mxGeometry width="100" height="100" relative="1" as="geometry">
            <Array as="points" />
          </mxGeometry>
        </mxCell>
        <mxCell id="FCB02u2KYhcW3MbhH3qO-30" value="Yes" style="text;html=1;resizable=0;labelBackgroundColor=default;align=center;verticalAlign=middle;fontColor=#666666;fontSize=13;" vertex="1" parent="FCB02u2KYhcW3MbhH3qO-29">
          <mxGeometry relative="1" as="geometry" />
        </mxCell>
        <mxCell id="FCB02u2KYhcW3MbhH3qO-31" value="" style="html=1;jettySize=18;whiteSpace=wrap;fontSize=13;fontColor=#666666;align=center;strokeColor=#666666;strokeOpacity=100;strokeWidth=0.8;rounded=1;arcSize=24;edgeStyle=orthogonalEdgeStyle;startArrow=none;endArrow=block;endFill=1;exitX=0.5;exitY=0.994;exitPerimeter=0;entryX=0.017;entryY=0.5;entryPerimeter=0;lucidId=TPGdDVbDeekA;" edge="1" parent="1" source="FCB02u2KYhcW3MbhH3qO-27" target="FCB02u2KYhcW3MbhH3qO-33">
          <mxGeometry width="100" height="100" relative="1" as="geometry">
            <Array as="points" />
          </mxGeometry>
        </mxCell>
        <mxCell id="FCB02u2KYhcW3MbhH3qO-32" value="No" style="text;html=1;resizable=0;labelBackgroundColor=default;align=center;verticalAlign=middle;fontColor=#666666;fontSize=13;" vertex="1" parent="FCB02u2KYhcW3MbhH3qO-31">
          <mxGeometry relative="1" as="geometry" />
        </mxCell>
        <mxCell id="FCB02u2KYhcW3MbhH3qO-33" value="Count Total Messages" style="html=1;overflow=block;blockSpacing=1;whiteSpace=wrap;shape=display;fontSize=13.5;fontColor=#ffffff;align=center;spacingLeft=9.7;spacingRight=9.7;spacingTop=2.8;spacing=3.8;strokeOpacity=0;fillOpacity=100;rounded=1;absoluteArcSize=1;arcSize=12;fillColor=#19967d;strokeWidth=1.5;lucidId=bdJd-crlA8JN;" vertex="1" parent="1">
          <mxGeometry x="585" y="480" width="135" height="60" as="geometry" />
        </mxCell>
        <mxCell id="FCB02u2KYhcW3MbhH3qO-34" value="Setup Click Events" style="html=1;overflow=block;blockSpacing=1;whiteSpace=wrap;fontSize=13.5;fontColor=#ffffff;align=center;spacingLeft=9.7;spacingRight=9.7;spacingTop=2.8;spacing=3.8;strokeOpacity=0;fillOpacity=100;rounded=1;absoluteArcSize=1;arcSize=12;fillColor=#19967d;strokeWidth=1.5;lucidId=DTGdQ9Kd2U~K;" vertex="1" parent="1">
          <mxGeometry x="780" y="390" width="135" height="60" as="geometry" />
        </mxCell>
        <mxCell id="FCB02u2KYhcW3MbhH3qO-35" value="" style="html=1;jettySize=18;whiteSpace=wrap;fontSize=13;strokeColor=#666666;strokeOpacity=100;strokeWidth=0.8;rounded=1;arcSize=24;edgeStyle=orthogonalEdgeStyle;startArrow=none;endArrow=block;endFill=1;exitX=1;exitY=0.5;exitPerimeter=0;entryX=0;entryY=0.5;entryPerimeter=0;lucidId=2TGdGtLB5foB;" edge="1" parent="1" source="FCB02u2KYhcW3MbhH3qO-28" target="FCB02u2KYhcW3MbhH3qO-34">
          <mxGeometry width="100" height="100" relative="1" as="geometry">
            <Array as="points" />
          </mxGeometry>
        </mxCell>
        <mxCell id="FCB02u2KYhcW3MbhH3qO-36" value="" style="html=1;jettySize=18;whiteSpace=wrap;fontSize=13;strokeColor=#666666;strokeOpacity=100;strokeWidth=0.8;rounded=1;arcSize=24;edgeStyle=orthogonalEdgeStyle;startArrow=none;endArrow=block;endFill=1;exitX=1;exitY=0.5;exitPerimeter=0;entryX=0.5;entryY=1;entryPerimeter=0;lucidId=0UGdG24txYCa;" edge="1" parent="1" source="FCB02u2KYhcW3MbhH3qO-33" target="FCB02u2KYhcW3MbhH3qO-34">
          <mxGeometry width="100" height="100" relative="1" as="geometry">
            <Array as="points" />
          </mxGeometry>
        </mxCell>
        <mxCell id="FCB02u2KYhcW3MbhH3qO-37" value="" style="html=1;jettySize=18;whiteSpace=wrap;fontSize=13;strokeColor=#666666;strokeOpacity=100;strokeWidth=0.8;rounded=1;arcSize=24;edgeStyle=orthogonalEdgeStyle;startArrow=none;endArrow=block;endFill=1;exitX=1;exitY=0.5;exitPerimeter=0;entryX=-0.006;entryY=0.5;entryPerimeter=0;lucidId=fWGdz3__Jk-T;" edge="1" parent="1" source="FCB02u2KYhcW3MbhH3qO-34" target="FCB02u2KYhcW3MbhH3qO-86">
          <mxGeometry width="100" height="100" relative="1" as="geometry">
            <Array as="points" />
          </mxGeometry>
        </mxCell>
        <mxCell id="FCB02u2KYhcW3MbhH3qO-38" value="Call ShowMessage  w/ID" style="html=1;overflow=block;blockSpacing=1;whiteSpace=wrap;fontSize=13.5;fontColor=#ffffff;align=center;spacingLeft=9.7;spacingRight=9.7;spacingTop=2.8;spacing=3.8;strokeColor=#225798;strokeOpacity=100;fillOpacity=100;rounded=1;absoluteArcSize=1;arcSize=12;fillColor=#19967d;strokeWidth=3;lucidId=XWGd7jz3g44S;" vertex="1" parent="1">
          <mxGeometry x="795" y="975" width="135" height="60" as="geometry" />
        </mxCell>
        <mxCell id="FCB02u2KYhcW3MbhH3qO-39" value="Message Bubble Clicked" style="html=1;overflow=block;blockSpacing=1;whiteSpace=wrap;shape=manualInput;size=15;fontSize=13.5;fontColor=#ffffff;align=center;spacingLeft=9.7;spacingRight=9.7;spacingTop=2.8;spacing=3.8;strokeOpacity=100;fillOpacity=100;rounded=1;absoluteArcSize=1;arcSize=12;fillColor=#3278ca;strokeWidth=3;lucidId=61GdARqxfu7n;" vertex="1" parent="1">
          <mxGeometry x="225" y="960" width="120" height="90" as="geometry" />
        </mxCell>
        <mxCell id="FCB02u2KYhcW3MbhH3qO-40" value="" style="html=1;jettySize=18;whiteSpace=wrap;fontSize=13;strokeColor=#666666;strokeOpacity=100;strokeWidth=0.8;rounded=1;arcSize=24;edgeStyle=orthogonalEdgeStyle;startArrow=none;endArrow=block;endFill=1;exitX=1.012;exitY=0.5;exitPerimeter=0;entryX=-0.011;entryY=0.5;entryPerimeter=0;lucidId=W2Gd.noCpikT;" edge="1" parent="1" source="FCB02u2KYhcW3MbhH3qO-39" target="FCB02u2KYhcW3MbhH3qO-38">
          <mxGeometry width="100" height="100" relative="1" as="geometry">
            <Array as="points" />
          </mxGeometry>
        </mxCell>
        <mxCell id="FCB02u2KYhcW3MbhH3qO-41" value="Call ShowMessage w/Next ID" style="html=1;overflow=block;blockSpacing=1;whiteSpace=wrap;fontSize=13.5;fontColor=#ffffff;align=center;spacingLeft=9.7;spacingRight=9.7;spacingTop=2.8;spacing=3.8;strokeColor=#225798;strokeOpacity=100;fillOpacity=100;rounded=1;absoluteArcSize=1;arcSize=12;fillColor=#19967d;strokeWidth=3;lucidId=.4GdMT0OChTV;" vertex="1" parent="1">
          <mxGeometry x="795" y="1089" width="135" height="60" as="geometry" />
        </mxCell>
        <mxCell id="FCB02u2KYhcW3MbhH3qO-42" value="No Thanks Clicked" style="html=1;overflow=block;blockSpacing=1;whiteSpace=wrap;shape=manualInput;size=15;fontSize=13.5;fontColor=#ffffff;align=center;spacingLeft=9.7;spacingRight=9.7;spacingTop=2.8;spacing=3.8;strokeOpacity=100;fillOpacity=100;rounded=1;absoluteArcSize=1;arcSize=12;fillColor=#3278ca;strokeWidth=3;lucidId=.4GdXP9lcvBf;" vertex="1" parent="1">
          <mxGeometry x="225" y="1074" width="120" height="90" as="geometry" />
        </mxCell>
        <mxCell id="FCB02u2KYhcW3MbhH3qO-43" value="" style="html=1;jettySize=18;whiteSpace=wrap;fontSize=13;strokeColor=#666666;strokeOpacity=100;strokeWidth=0.8;rounded=1;arcSize=24;edgeStyle=orthogonalEdgeStyle;startArrow=none;endArrow=block;endFill=1;exitX=1.012;exitY=0.5;exitPerimeter=0;entryX=0.012;entryY=0.5;entryPerimeter=0;lucidId=.4GdPCpEk18n;" edge="1" parent="1" source="FCB02u2KYhcW3MbhH3qO-42" target="FCB02u2KYhcW3MbhH3qO-45">
          <mxGeometry width="100" height="100" relative="1" as="geometry">
            <Array as="points" />
          </mxGeometry>
        </mxCell>
        <mxCell id="FCB02u2KYhcW3MbhH3qO-44" value="Clear Message and Wait" style="html=1;overflow=block;blockSpacing=1;whiteSpace=wrap;fontSize=13.5;fontColor=#ffffff;align=center;spacingLeft=9.7;spacingRight=9.7;spacingTop=2.8;spacing=3.8;strokeOpacity=0;fillOpacity=100;rounded=1;absoluteArcSize=1;arcSize=12;fillColor=#3278ca;strokeWidth=1.5;lucidId=d5GdRy-THiCi;" vertex="1" parent="1">
          <mxGeometry x="751" y="1329" width="135" height="60" as="geometry" />
        </mxCell>
        <mxCell id="FCB02u2KYhcW3MbhH3qO-45" value="Messages?" style="html=1;overflow=block;blockSpacing=1;whiteSpace=wrap;rhombus;fontSize=13.5;fontColor=#333333;fontStyle=2;align=center;spacingLeft=9.7;spacingRight=9.7;spacingTop=2.8;spacing=3.8;strokeColor=#225798;strokeOpacity=100;fillOpacity=100;rounded=1;absoluteArcSize=1;arcSize=12;fillColor=#ffffff;strokeWidth=3;lucidId=C6Gd~AorssXt;" vertex="1" parent="1">
          <mxGeometry x="390" y="1074" width="120" height="90" as="geometry" />
        </mxCell>
        <mxCell id="FCB02u2KYhcW3MbhH3qO-46" value="" style="html=1;jettySize=18;whiteSpace=wrap;fontSize=13;fontColor=#666666;align=center;strokeColor=#666666;strokeOpacity=100;strokeWidth=0.8;rounded=1;arcSize=24;edgeStyle=orthogonalEdgeStyle;startArrow=none;endArrow=block;endFill=1;exitX=0.988;exitY=0.5;exitPerimeter=0;entryX=-0.011;entryY=0.5;entryPerimeter=0;lucidId=B8GdL2.75kk2;" edge="1" parent="1" source="FCB02u2KYhcW3MbhH3qO-45" target="FCB02u2KYhcW3MbhH3qO-49">
          <mxGeometry width="100" height="100" relative="1" as="geometry">
            <Array as="points" />
          </mxGeometry>
        </mxCell>
        <mxCell id="FCB02u2KYhcW3MbhH3qO-47" value="Yes" style="text;html=1;resizable=0;labelBackgroundColor=default;align=center;verticalAlign=middle;fontColor=#666666;fontSize=13;" vertex="1" parent="FCB02u2KYhcW3MbhH3qO-46">
          <mxGeometry relative="1" as="geometry" />
        </mxCell>
        <mxCell id="FCB02u2KYhcW3MbhH3qO-48" value="" style="html=1;jettySize=18;whiteSpace=wrap;fontSize=13;strokeColor=#666666;strokeOpacity=100;strokeWidth=0.8;rounded=1;arcSize=24;edgeStyle=orthogonalEdgeStyle;startArrow=none;endArrow=block;endFill=1;exitX=1.011;exitY=0.5;exitPerimeter=0;entryX=0.5;entryY=1.017;entryPerimeter=0;lucidId=C9GdC9.h1m8s;" edge="1" parent="1" source="FCB02u2KYhcW3MbhH3qO-38" target="FCB02u2KYhcW3MbhH3qO-25">
          <mxGeometry width="100" height="100" relative="1" as="geometry">
            <Array as="points" />
          </mxGeometry>
        </mxCell>
        <mxCell id="FCB02u2KYhcW3MbhH3qO-49" value="Call DecrementCount" style="html=1;overflow=block;blockSpacing=1;whiteSpace=wrap;fontSize=13.5;fontColor=#ffffff;align=center;spacingLeft=9.7;spacingRight=9.7;spacingTop=2.8;spacing=3.8;strokeColor=#225798;strokeOpacity=100;fillOpacity=100;rounded=1;absoluteArcSize=1;arcSize=12;fillColor=#19967d;strokeWidth=3;lucidId=h-GdqAswY9sV;" vertex="1" parent="1">
          <mxGeometry x="601" y="1089" width="135" height="60" as="geometry" />
        </mxCell>
        <mxCell id="FCB02u2KYhcW3MbhH3qO-50" value="" style="html=1;jettySize=18;whiteSpace=wrap;fontSize=13;strokeColor=#666666;strokeOpacity=100;strokeWidth=0.8;rounded=1;arcSize=24;edgeStyle=orthogonalEdgeStyle;startArrow=none;endArrow=block;endFill=1;exitX=1.011;exitY=0.5;exitPerimeter=0;entryX=-0.011;entryY=0.5;entryPerimeter=0;lucidId=JbHdDp-b1JaW;" edge="1" parent="1" source="FCB02u2KYhcW3MbhH3qO-49" target="FCB02u2KYhcW3MbhH3qO-41">
          <mxGeometry width="100" height="100" relative="1" as="geometry">
            <Array as="points" />
          </mxGeometry>
        </mxCell>
        <mxCell id="FCB02u2KYhcW3MbhH3qO-51" value="" style="html=1;jettySize=18;whiteSpace=wrap;fontSize=13;fontColor=#666666;align=center;strokeColor=#666666;strokeOpacity=100;strokeWidth=0.8;rounded=1;arcSize=24;edgeStyle=orthogonalEdgeStyle;startArrow=none;endArrow=block;endFill=1;exitX=0.5;exitY=0.994;exitPerimeter=0;entryX=-0.011;entryY=0.5;entryPerimeter=0;lucidId=ZbHd_XXAkffq;" edge="1" parent="1" source="FCB02u2KYhcW3MbhH3qO-45" target="FCB02u2KYhcW3MbhH3qO-53">
          <mxGeometry width="100" height="100" relative="1" as="geometry">
            <Array as="points" />
          </mxGeometry>
        </mxCell>
        <mxCell id="FCB02u2KYhcW3MbhH3qO-52" value="No" style="text;html=1;resizable=0;labelBackgroundColor=default;align=center;verticalAlign=middle;fontColor=#666666;fontSize=13;" vertex="1" parent="FCB02u2KYhcW3MbhH3qO-51">
          <mxGeometry relative="1" as="geometry" />
        </mxCell>
        <mxCell id="FCB02u2KYhcW3MbhH3qO-53" value="Call DecrementCount" style="html=1;overflow=block;blockSpacing=1;whiteSpace=wrap;fontSize=13.5;fontColor=#ffffff;align=center;spacingLeft=9.7;spacingRight=9.7;spacingTop=2.8;spacing=3.8;strokeColor=#225798;strokeOpacity=100;fillOpacity=100;rounded=1;absoluteArcSize=1;arcSize=12;fillColor=#19967d;strokeWidth=3;lucidId=gcHdwnM23_YO;" vertex="1" parent="1">
          <mxGeometry x="601" y="1193" width="135" height="60" as="geometry" />
        </mxCell>
        <mxCell id="FCB02u2KYhcW3MbhH3qO-54" value="ClearMessage(ID, redirectURL)" style="html=1;overflow=block;blockSpacing=1;whiteSpace=wrap;fontSize=13.5;fontColor=#ffffff;align=center;spacingLeft=9.7;spacingRight=9.7;spacingTop=2.8;spacing=3.8;strokeOpacity=0;fillOpacity=100;rounded=1;absoluteArcSize=1;arcSize=12;fillColor=#3278ca;strokeWidth=1.5;lucidId=wVId1NTy5eKo;" vertex="1" parent="1">
          <mxGeometry x="315" y="1329" width="195" height="60" as="geometry" />
        </mxCell>
        <mxCell id="FCB02u2KYhcW3MbhH3qO-55" value="" style="html=1;jettySize=18;whiteSpace=wrap;fontSize=13;strokeColor=#666666;strokeOpacity=100;strokeWidth=0.8;rounded=1;arcSize=24;edgeStyle=orthogonalEdgeStyle;startArrow=none;endArrow=block;endFill=1;exitX=1;exitY=0.5;exitPerimeter=0;entryX=0.012;entryY=0.5;entryPerimeter=0;lucidId=ZWIdc_MJY4f0;" edge="1" parent="1" source="FCB02u2KYhcW3MbhH3qO-54" target="FCB02u2KYhcW3MbhH3qO-56">
          <mxGeometry width="100" height="100" relative="1" as="geometry">
            <Array as="points" />
          </mxGeometry>
        </mxCell>
        <mxCell id="FCB02u2KYhcW3MbhH3qO-56" value="URL?" style="html=1;overflow=block;blockSpacing=1;whiteSpace=wrap;rhombus;fontSize=13.5;fontColor=#333333;fontStyle=2;align=center;spacingLeft=9.7;spacingRight=9.7;spacingTop=2.8;spacing=3.8;strokeColor=#225798;strokeOpacity=100;fillOpacity=100;rounded=1;absoluteArcSize=1;arcSize=12;fillColor=#ffffff;strokeWidth=3;lucidId=7WIdb2e3yTe2;" vertex="1" parent="1">
          <mxGeometry x="570" y="1314" width="120" height="90" as="geometry" />
        </mxCell>
        <mxCell id="FCB02u2KYhcW3MbhH3qO-57" value="" style="html=1;jettySize=18;whiteSpace=wrap;fontSize=13;fontColor=#666666;align=center;strokeColor=#666666;strokeOpacity=100;strokeWidth=0.8;rounded=1;arcSize=24;edgeStyle=orthogonalEdgeStyle;startArrow=none;endArrow=block;endFill=1;exitX=0.988;exitY=0.5;exitPerimeter=0;entryX=0;entryY=0.5;entryPerimeter=0;lucidId=1XIdfT_b.rAX;" edge="1" parent="1" source="FCB02u2KYhcW3MbhH3qO-56" target="FCB02u2KYhcW3MbhH3qO-44">
          <mxGeometry width="100" height="100" relative="1" as="geometry">
            <Array as="points" />
          </mxGeometry>
        </mxCell>
        <mxCell id="FCB02u2KYhcW3MbhH3qO-58" value="Yes" style="text;html=1;resizable=0;labelBackgroundColor=default;align=center;verticalAlign=middle;fontColor=#666666;fontSize=13;" vertex="1" parent="FCB02u2KYhcW3MbhH3qO-57">
          <mxGeometry relative="1" as="geometry" />
        </mxCell>
        <mxCell id="FCB02u2KYhcW3MbhH3qO-59" value="" style="html=1;jettySize=18;whiteSpace=wrap;fontSize=13;fontColor=#666666;align=center;strokeColor=#666666;strokeOpacity=100;strokeWidth=0.8;rounded=1;arcSize=24;edgeStyle=orthogonalEdgeStyle;startArrow=none;endArrow=block;endFill=1;exitX=0.5;exitY=0.994;exitPerimeter=0;entryX=0;entryY=0.5;entryPerimeter=0;lucidId=.XIdk-Hn6ma5;" edge="1" parent="1" source="FCB02u2KYhcW3MbhH3qO-56" target="FCB02u2KYhcW3MbhH3qO-61">
          <mxGeometry width="100" height="100" relative="1" as="geometry">
            <Array as="points" />
          </mxGeometry>
        </mxCell>
        <mxCell id="FCB02u2KYhcW3MbhH3qO-60" value="No" style="text;html=1;resizable=0;labelBackgroundColor=default;align=center;verticalAlign=middle;fontColor=#666666;fontSize=13;" vertex="1" parent="FCB02u2KYhcW3MbhH3qO-59">
          <mxGeometry relative="1" as="geometry" />
        </mxCell>
        <mxCell id="FCB02u2KYhcW3MbhH3qO-61" value="Clear Message" style="html=1;overflow=block;blockSpacing=1;whiteSpace=wrap;fontSize=13.5;fontColor=#ffffff;align=center;spacingLeft=9.7;spacingRight=9.7;spacingTop=2.8;spacing=3.8;strokeOpacity=0;fillOpacity=100;rounded=1;absoluteArcSize=1;arcSize=12;fillColor=#3278ca;strokeWidth=1.5;lucidId=l1Idcobjsbr9;" vertex="1" parent="1">
          <mxGeometry x="752" y="1419" width="135" height="60" as="geometry" />
        </mxCell>
        <mxCell id="FCB02u2KYhcW3MbhH3qO-62" value="" style="html=1;jettySize=18;whiteSpace=wrap;fontSize=13;strokeColor=#666666;strokeOpacity=100;strokeWidth=0.8;rounded=1;arcSize=24;edgeStyle=orthogonalEdgeStyle;startArrow=none;endArrow=block;endFill=1;exitX=1;exitY=0.5;exitPerimeter=0;entryX=0.738;entryY=1.017;entryPerimeter=0;lucidId=O1Id_crsaB1B;" edge="1" parent="1" source="FCB02u2KYhcW3MbhH3qO-61" target="FCB02u2KYhcW3MbhH3qO-25">
          <mxGeometry width="100" height="100" relative="1" as="geometry">
            <Array as="points" />
          </mxGeometry>
        </mxCell>
        <mxCell id="FCB02u2KYhcW3MbhH3qO-63" value="Redirect to URL" style="html=1;overflow=block;blockSpacing=1;whiteSpace=wrap;fontSize=13.5;fontColor=#ffffff;align=center;spacingLeft=9.7;spacingRight=9.7;spacingTop=2.8;spacing=3.8;strokeOpacity=0;fillOpacity=100;rounded=1;absoluteArcSize=1;arcSize=12;fillColor=#3278ca;strokeWidth=1.5;lucidId=T1IdaDNP1wnC;" vertex="1" parent="1">
          <mxGeometry x="931" y="1329" width="135" height="60" as="geometry" />
        </mxCell>
        <mxCell id="FCB02u2KYhcW3MbhH3qO-64" value="" style="html=1;jettySize=18;whiteSpace=wrap;fontSize=13;strokeColor=#666666;strokeOpacity=100;strokeWidth=0.8;rounded=1;arcSize=24;edgeStyle=orthogonalEdgeStyle;startArrow=none;endArrow=block;endFill=1;exitX=1;exitY=0.5;exitPerimeter=0;entryX=0;entryY=0.5;entryPerimeter=0;lucidId=i2IdTzcwsOQ7;" edge="1" parent="1" source="FCB02u2KYhcW3MbhH3qO-44" target="FCB02u2KYhcW3MbhH3qO-63">
          <mxGeometry width="100" height="100" relative="1" as="geometry">
            <Array as="points" />
          </mxGeometry>
        </mxCell>
        <mxCell id="FCB02u2KYhcW3MbhH3qO-65" value="" style="html=1;jettySize=18;whiteSpace=wrap;fontSize=13;strokeColor=#666666;strokeOpacity=100;strokeWidth=0.8;rounded=1;arcSize=24;edgeStyle=orthogonalEdgeStyle;startArrow=none;endArrow=block;endFill=1;exitX=1;exitY=0.5;exitPerimeter=0;entryX=0.738;entryY=1.017;entryPerimeter=0;lucidId=D2Id2p537C_3;" edge="1" parent="1" source="FCB02u2KYhcW3MbhH3qO-63" target="FCB02u2KYhcW3MbhH3qO-25">
          <mxGeometry width="100" height="100" relative="1" as="geometry">
            <Array as="points" />
          </mxGeometry>
        </mxCell>
        <mxCell id="FCB02u2KYhcW3MbhH3qO-66" value="" style="html=1;jettySize=18;whiteSpace=wrap;fontSize=13;strokeColor=#666666;strokeOpacity=100;strokeWidth=0.8;rounded=1;arcSize=24;edgeStyle=orthogonalEdgeStyle;startArrow=none;endArrow=block;endFill=1;exitX=1.011;exitY=0.5;exitPerimeter=0;entryX=0.5;entryY=0;entryPerimeter=0;lucidId=83Id3k..~~~h;" edge="1" parent="1" source="FCB02u2KYhcW3MbhH3qO-41" target="FCB02u2KYhcW3MbhH3qO-54">
          <mxGeometry width="100" height="100" relative="1" as="geometry">
            <Array as="points">
              <mxPoint x="1035" y="1139" />
              <mxPoint x="1035" y="1311" />
              <mxPoint x="413" y="1311" />
            </Array>
          </mxGeometry>
        </mxCell>
        <mxCell id="FCB02u2KYhcW3MbhH3qO-67" value="(ID only)" style="text;html=1;resizable=0;labelBackgroundColor=default;align=center;verticalAlign=middle;fontColor=#666666;fontSize=13;" vertex="1" parent="FCB02u2KYhcW3MbhH3qO-66">
          <mxGeometry x="-0.8847553852169652" relative="1" as="geometry" />
        </mxCell>
        <mxCell id="FCB02u2KYhcW3MbhH3qO-68" value="" style="html=1;jettySize=18;whiteSpace=wrap;fontSize=13;strokeColor=#666666;strokeOpacity=100;strokeWidth=0.8;rounded=1;arcSize=24;edgeStyle=orthogonalEdgeStyle;startArrow=none;endArrow=block;endFill=1;exitX=1.011;exitY=0.5;exitPerimeter=0;entryX=0.5;entryY=0;entryPerimeter=0;lucidId=r4Id9HPXRGGT;" edge="1" parent="1" source="FCB02u2KYhcW3MbhH3qO-53" target="FCB02u2KYhcW3MbhH3qO-54">
          <mxGeometry width="100" height="100" relative="1" as="geometry">
            <Array as="points">
              <mxPoint x="1035" y="1243" />
              <mxPoint x="1035" y="1311" />
              <mxPoint x="413" y="1311" />
            </Array>
          </mxGeometry>
        </mxCell>
        <mxCell id="FCB02u2KYhcW3MbhH3qO-69" value="(ID Only)" style="text;html=1;resizable=0;labelBackgroundColor=default;align=center;verticalAlign=middle;fontColor=#666666;fontSize=13;" vertex="1" parent="FCB02u2KYhcW3MbhH3qO-68">
          <mxGeometry x="-0.8615003777566941" relative="1" as="geometry" />
        </mxCell>
        <mxCell id="FCB02u2KYhcW3MbhH3qO-70" value="Message Box Button Clicked" style="html=1;overflow=block;blockSpacing=1;whiteSpace=wrap;shape=manualInput;size=15;fontSize=13.5;fontColor=#ffffff;align=center;spacingLeft=9.7;spacingRight=9.7;spacingTop=2.8;spacing=3.8;strokeOpacity=100;fillOpacity=100;rounded=1;absoluteArcSize=1;arcSize=12;fillColor=#3278ca;strokeWidth=3;lucidId=y7Id636xaxl8;" vertex="1" parent="1">
          <mxGeometry x="225" y="1200" width="120" height="90" as="geometry" />
        </mxCell>
        <mxCell id="FCB02u2KYhcW3MbhH3qO-71" value="" style="html=1;jettySize=18;whiteSpace=wrap;fontSize=13;strokeColor=#666666;strokeOpacity=100;strokeWidth=0.8;rounded=1;arcSize=24;edgeStyle=orthogonalEdgeStyle;startArrow=none;endArrow=block;endFill=1;exitX=0.5;exitY=1.017;exitPerimeter=0;entryX=0;entryY=0.5;entryPerimeter=0;lucidId=g8IdU3ZLM0.R;" edge="1" parent="1" source="FCB02u2KYhcW3MbhH3qO-70" target="FCB02u2KYhcW3MbhH3qO-54">
          <mxGeometry width="100" height="100" relative="1" as="geometry">
            <Array as="points" />
          </mxGeometry>
        </mxCell>
        <mxCell id="FCB02u2KYhcW3MbhH3qO-72" value="(ID, Button URL)" style="text;html=1;resizable=0;labelBackgroundColor=default;align=center;verticalAlign=middle;fontColor=#666666;fontSize=13;" vertex="1" parent="FCB02u2KYhcW3MbhH3qO-71">
          <mxGeometry x="-0.2206759193586355" relative="1" as="geometry" />
        </mxCell>
        <mxCell id="FCB02u2KYhcW3MbhH3qO-73" value="Page Load" style="html=1;overflow=block;blockSpacing=1;whiteSpace=wrap;rounded=1;arcSize=50;fontSize=13.5;fontColor=#ffffff;fontStyle=2;align=center;spacingLeft=9.7;spacingRight=9.7;spacingTop=2.8;spacing=3.8;strokeOpacity=0;fillOpacity=100;fillColor=#3278ca;strokeWidth=1.5;lucidId=5_Ide.p8.WHW;" vertex="1" parent="1">
          <mxGeometry x="210" y="834" width="120" height="60" as="geometry" />
        </mxCell>
        <mxCell id="FCB02u2KYhcW3MbhH3qO-74" value="Get Message JSON" style="html=1;overflow=block;blockSpacing=1;whiteSpace=wrap;fontSize=13.5;fontColor=#ffffff;align=center;spacingLeft=9.7;spacingRight=9.7;spacingTop=2.8;spacing=3.8;strokeOpacity=0;fillOpacity=100;rounded=1;absoluteArcSize=1;arcSize=12;fillColor=#3278ca;strokeWidth=1.5;lucidId=5_IdHDkwCKUH;" vertex="1" parent="1">
          <mxGeometry x="420" y="871" width="135" height="75" as="geometry" />
        </mxCell>
        <mxCell id="FCB02u2KYhcW3MbhH3qO-75" value="" style="html=1;jettySize=18;whiteSpace=wrap;fontSize=13;strokeColor=#666666;strokeOpacity=100;strokeWidth=0.8;rounded=1;arcSize=24;edgeStyle=orthogonalEdgeStyle;startArrow=none;endArrow=block;endFill=1;exitX=1;exitY=0.5;exitPerimeter=0;entryX=0;entryY=0.5;entryPerimeter=0;lucidId=5_Idx8moZk..;" edge="1" parent="1" source="FCB02u2KYhcW3MbhH3qO-73" target="FCB02u2KYhcW3MbhH3qO-74">
          <mxGeometry width="100" height="100" relative="1" as="geometry">
            <Array as="points" />
          </mxGeometry>
        </mxCell>
        <mxCell id="FCB02u2KYhcW3MbhH3qO-76" value="" style="html=1;jettySize=18;whiteSpace=wrap;fontSize=13;strokeColor=#666666;strokeOpacity=100;strokeWidth=0.8;rounded=1;arcSize=24;edgeStyle=orthogonalEdgeStyle;startArrow=none;endArrow=block;endFill=1;exitX=1;exitY=0.5;exitPerimeter=0;entryX=0.012;entryY=0.5;entryPerimeter=0;lucidId=5_Id4RHkVJGU;" edge="1" parent="1" source="FCB02u2KYhcW3MbhH3qO-74" target="FCB02u2KYhcW3MbhH3qO-77">
          <mxGeometry width="100" height="100" relative="1" as="geometry">
            <Array as="points" />
          </mxGeometry>
        </mxCell>
        <mxCell id="FCB02u2KYhcW3MbhH3qO-77" value="Messages?" style="html=1;overflow=block;blockSpacing=1;whiteSpace=wrap;rhombus;fontSize=13.5;fontColor=#333333;fontStyle=2;align=center;spacingLeft=9.7;spacingRight=9.7;spacingTop=2.8;spacing=3.8;strokeColor=#225798;strokeOpacity=100;fillOpacity=100;rounded=1;absoluteArcSize=1;arcSize=12;fillColor=#ffffff;strokeWidth=3;lucidId=5_IdzP1IsdJR;" vertex="1" parent="1">
          <mxGeometry x="630" y="864" width="120" height="90" as="geometry" />
        </mxCell>
        <mxCell id="FCB02u2KYhcW3MbhH3qO-78" value="" style="html=1;jettySize=18;whiteSpace=wrap;fontSize=13;fontColor=#666666;align=center;strokeColor=#666666;strokeOpacity=100;strokeWidth=0.8;rounded=1;arcSize=24;edgeStyle=orthogonalEdgeStyle;startArrow=none;endArrow=block;endFill=1;exitX=0.988;exitY=0.5;exitPerimeter=0;entryX=-0.006;entryY=0.5;entryPerimeter=0;lucidId=5_Idh73RAV~G;" edge="1" parent="1" source="FCB02u2KYhcW3MbhH3qO-77" target="FCB02u2KYhcW3MbhH3qO-25">
          <mxGeometry width="100" height="100" relative="1" as="geometry">
            <Array as="points" />
          </mxGeometry>
        </mxCell>
        <mxCell id="FCB02u2KYhcW3MbhH3qO-79" value="No" style="text;html=1;resizable=0;labelBackgroundColor=default;align=center;verticalAlign=middle;fontColor=#666666;fontSize=13;" vertex="1" parent="FCB02u2KYhcW3MbhH3qO-78">
          <mxGeometry relative="1" as="geometry" />
        </mxCell>
        <mxCell id="FCB02u2KYhcW3MbhH3qO-80" value="" style="html=1;jettySize=18;whiteSpace=wrap;fontSize=13;fontColor=#666666;align=center;strokeColor=#666666;strokeOpacity=100;strokeWidth=0.8;rounded=1;arcSize=24;edgeStyle=orthogonalEdgeStyle;startArrow=none;endArrow=block;endFill=1;exitX=0.5;exitY=0.006;exitPerimeter=0;entryX=-0.011;entryY=0.5;entryPerimeter=0;lucidId=5_IdvWs1eJfO;" edge="1" parent="1" source="FCB02u2KYhcW3MbhH3qO-77" target="FCB02u2KYhcW3MbhH3qO-84">
          <mxGeometry width="100" height="100" relative="1" as="geometry">
            <Array as="points" />
          </mxGeometry>
        </mxCell>
        <mxCell id="FCB02u2KYhcW3MbhH3qO-81" value="Yes" style="text;html=1;resizable=0;labelBackgroundColor=default;align=center;verticalAlign=middle;fontColor=#666666;fontSize=13;" vertex="1" parent="FCB02u2KYhcW3MbhH3qO-80">
          <mxGeometry relative="1" as="geometry" />
        </mxCell>
        <mxCell id="FCB02u2KYhcW3MbhH3qO-82" value="" style="html=1;jettySize=18;whiteSpace=wrap;fontSize=13;strokeColor=#666666;strokeOpacity=100;strokeWidth=0.8;rounded=1;arcSize=24;edgeStyle=orthogonalEdgeStyle;startArrow=none;endArrow=block;endFill=1;exitX=1;exitY=0.5;exitPerimeter=0;entryX=0.015;entryY=0.5;entryPerimeter=0;lucidId=IfJddmgaiqQs;" edge="1" parent="1" source="FCB02u2KYhcW3MbhH3qO-26" target="FCB02u2KYhcW3MbhH3qO-27">
          <mxGeometry width="100" height="100" relative="1" as="geometry">
            <Array as="points" />
          </mxGeometry>
        </mxCell>
        <mxCell id="FCB02u2KYhcW3MbhH3qO-83" value="ShowMessage(ID)" style="html=1;overflow=block;blockSpacing=1;whiteSpace=wrap;fontSize=13.5;fontColor=#ffffff;align=center;spacingLeft=9.7;spacingRight=9.7;spacingTop=2.8;spacing=3.8;strokeOpacity=0;fillOpacity=100;rounded=1;absoluteArcSize=1;arcSize=12;fillColor=#19967d;strokeWidth=1.5;lucidId=mgJd2-QqVJvg;" vertex="1" parent="1">
          <mxGeometry x="218" y="556" width="158" height="51" as="geometry" />
        </mxCell>
        <mxCell id="FCB02u2KYhcW3MbhH3qO-84" value="Call Init" style="html=1;overflow=block;blockSpacing=1;whiteSpace=wrap;fontSize=13.5;fontColor=#ffffff;align=center;spacingLeft=9.7;spacingRight=9.7;spacingTop=2.8;spacing=3.8;strokeColor=#225798;strokeOpacity=100;fillOpacity=100;rounded=1;absoluteArcSize=1;arcSize=12;fillColor=#19967d;strokeWidth=3;lucidId=chJdPf1wT4-s;" vertex="1" parent="1">
          <mxGeometry x="795" y="812" width="135" height="51" as="geometry" />
        </mxCell>
        <mxCell id="FCB02u2KYhcW3MbhH3qO-85" value="" style="html=1;jettySize=18;whiteSpace=wrap;fontSize=13;strokeColor=#666666;strokeOpacity=100;strokeWidth=0.8;rounded=1;arcSize=24;edgeStyle=orthogonalEdgeStyle;startArrow=none;endArrow=block;endFill=1;exitX=1.011;exitY=0.5;exitPerimeter=0;entryX=0.5;entryY=-0.017;entryPerimeter=0;lucidId=HhJd_xFqS9A0;" edge="1" parent="1" source="FCB02u2KYhcW3MbhH3qO-84" target="FCB02u2KYhcW3MbhH3qO-25">
          <mxGeometry width="100" height="100" relative="1" as="geometry">
            <Array as="points" />
          </mxGeometry>
        </mxCell>
        <mxCell id="FCB02u2KYhcW3MbhH3qO-86" value="Done" style="html=1;overflow=block;blockSpacing=1;whiteSpace=wrap;rounded=1;arcSize=50;fontSize=13.5;fontColor=#19967d;fontStyle=3;align=center;spacingLeft=9.7;spacingRight=9.7;spacingTop=2.8;spacing=3.8;strokeColor=#19967d;strokeOpacity=100;fillOpacity=100;fillColor=#ffffff;strokeWidth=1.5;lucidId=WhJdPZ7HiJxd;" vertex="1" parent="1">
          <mxGeometry x="1020" y="398" width="120" height="45" as="geometry" />
        </mxCell>
        <mxCell id="FCB02u2KYhcW3MbhH3qO-87" value="DecrementCount(Type)" style="html=1;overflow=block;blockSpacing=1;whiteSpace=wrap;fontSize=13.5;fontColor=#ffffff;align=center;spacingLeft=9.7;spacingRight=9.7;spacingTop=2.8;spacing=3.8;strokeOpacity=0;fillOpacity=100;rounded=1;absoluteArcSize=1;arcSize=12;fillColor=#19967d;strokeWidth=1.5;lucidId=lkJdReitfg8W;" vertex="1" parent="1">
          <mxGeometry x="218" y="649" width="172" height="51" as="geometry" />
        </mxCell>
        <mxCell id="FCB02u2KYhcW3MbhH3qO-88" value="" style="html=1;jettySize=18;whiteSpace=wrap;fontSize=13;strokeColor=#666666;strokeOpacity=100;strokeWidth=0.8;rounded=1;arcSize=24;edgeStyle=orthogonalEdgeStyle;startArrow=none;endArrow=block;endFill=1;exitX=1;exitY=0.5;exitPerimeter=0;entryX=0;entryY=0.5;entryPerimeter=0;lucidId=DrJdCKYdIr18;" edge="1" parent="1" source="FCB02u2KYhcW3MbhH3qO-83" target="FCB02u2KYhcW3MbhH3qO-89">
          <mxGeometry width="100" height="100" relative="1" as="geometry">
            <Array as="points" />
          </mxGeometry>
        </mxCell>
        <mxCell id="FCB02u2KYhcW3MbhH3qO-89" value="Fill Message" style="html=1;overflow=block;blockSpacing=1;whiteSpace=wrap;fontSize=13.5;fontColor=#ffffff;align=center;spacingLeft=9.7;spacingRight=9.7;spacingTop=2.8;spacing=3.8;strokeOpacity=0;fillOpacity=100;rounded=1;absoluteArcSize=1;arcSize=12;fillColor=#19967d;strokeWidth=1.5;lucidId=7rJdLLe_UFcI;" vertex="1" parent="1">
          <mxGeometry x="435" y="556" width="158" height="51" as="geometry" />
        </mxCell>
        <mxCell id="FCB02u2KYhcW3MbhH3qO-90" value="Display Message" style="html=1;overflow=block;blockSpacing=1;whiteSpace=wrap;shape=display;fontSize=13.5;fontColor=#ffffff;align=center;spacingLeft=9.7;spacingRight=9.7;spacingTop=2.8;spacing=3.8;strokeOpacity=0;fillOpacity=100;rounded=1;absoluteArcSize=1;arcSize=12;fillColor=#19967d;strokeWidth=1.5;lucidId=tsJd9Ce1eo27;" vertex="1" parent="1">
          <mxGeometry x="660" y="552" width="135" height="60" as="geometry" />
        </mxCell>
        <mxCell id="FCB02u2KYhcW3MbhH3qO-91" value="" style="html=1;jettySize=18;whiteSpace=wrap;fontSize=13;strokeColor=#666666;strokeOpacity=100;strokeWidth=0.8;rounded=1;arcSize=24;edgeStyle=orthogonalEdgeStyle;startArrow=none;endArrow=block;endFill=1;exitX=1;exitY=0.5;exitPerimeter=0;entryX=0.017;entryY=0.5;entryPerimeter=0;lucidId=ZsJdCb4sjnf3;" edge="1" parent="1" source="FCB02u2KYhcW3MbhH3qO-89" target="FCB02u2KYhcW3MbhH3qO-90">
          <mxGeometry width="100" height="100" relative="1" as="geometry">
            <Array as="points" />
          </mxGeometry>
        </mxCell>
        <mxCell id="FCB02u2KYhcW3MbhH3qO-92" value="" style="html=1;jettySize=18;whiteSpace=wrap;fontSize=13;strokeColor=#666666;strokeOpacity=100;strokeWidth=0.8;rounded=1;arcSize=24;edgeStyle=orthogonalEdgeStyle;startArrow=none;endArrow=block;endFill=1;exitX=1;exitY=0.5;exitPerimeter=0;entryX=0.5;entryY=1.017;entryPerimeter=0;lucidId=4sJdZ1c5cM0H;" edge="1" parent="1" source="FCB02u2KYhcW3MbhH3qO-90" target="FCB02u2KYhcW3MbhH3qO-86">
          <mxGeometry width="100" height="100" relative="1" as="geometry">
            <Array as="points" />
          </mxGeometry>
        </mxCell>
        <mxCell id="FCB02u2KYhcW3MbhH3qO-93" value="Count Zero?" style="html=1;overflow=block;blockSpacing=1;whiteSpace=wrap;rhombus;fontSize=13.5;fontColor=#333333;fontStyle=2;align=center;spacingLeft=9.7;spacingRight=9.7;spacingTop=2.8;spacing=3.8;strokeColor=#19967d;strokeOpacity=100;fillOpacity=100;rounded=1;absoluteArcSize=1;arcSize=12;fillColor=#ffffff;strokeWidth=3;lucidId=ltJd_9~2aYNi;" vertex="1" parent="1">
          <mxGeometry x="630" y="630" width="120" height="90" as="geometry" />
        </mxCell>
        <mxCell id="FCB02u2KYhcW3MbhH3qO-94" value="Decrement Count" style="html=1;overflow=block;blockSpacing=1;whiteSpace=wrap;fontSize=13.5;fontColor=#ffffff;align=center;spacingLeft=9.7;spacingRight=9.7;spacingTop=2.8;spacing=3.8;strokeOpacity=0;fillOpacity=100;rounded=1;absoluteArcSize=1;arcSize=12;fillColor=#19967d;strokeWidth=1.5;lucidId=utJdcyLFSm~U;" vertex="1" parent="1">
          <mxGeometry x="435" y="649" width="158" height="51" as="geometry" />
        </mxCell>
        <mxCell id="FCB02u2KYhcW3MbhH3qO-95" value="" style="html=1;jettySize=18;whiteSpace=wrap;fontSize=13;strokeColor=#666666;strokeOpacity=100;strokeWidth=0.8;rounded=1;arcSize=24;edgeStyle=orthogonalEdgeStyle;startArrow=none;endArrow=block;endFill=1;exitX=1;exitY=0.5;exitPerimeter=0;entryX=0;entryY=0.5;entryPerimeter=0;lucidId=kuJd8cm4LtRi;" edge="1" parent="1" source="FCB02u2KYhcW3MbhH3qO-87" target="FCB02u2KYhcW3MbhH3qO-94">
          <mxGeometry width="100" height="100" relative="1" as="geometry">
            <Array as="points" />
          </mxGeometry>
        </mxCell>
        <mxCell id="FCB02u2KYhcW3MbhH3qO-96" value="" style="html=1;jettySize=18;whiteSpace=wrap;fontSize=13;strokeColor=#666666;strokeOpacity=100;strokeWidth=0.8;rounded=1;arcSize=24;edgeStyle=orthogonalEdgeStyle;startArrow=none;endArrow=block;endFill=1;exitX=1;exitY=0.5;exitPerimeter=0;entryX=0.012;entryY=0.5;entryPerimeter=0;lucidId=tuJdP6YbNT5n;" edge="1" parent="1" source="FCB02u2KYhcW3MbhH3qO-94" target="FCB02u2KYhcW3MbhH3qO-93">
          <mxGeometry width="100" height="100" relative="1" as="geometry">
            <Array as="points" />
          </mxGeometry>
        </mxCell>
        <mxCell id="FCB02u2KYhcW3MbhH3qO-97" value="" style="html=1;jettySize=18;whiteSpace=wrap;fontSize=13;fontColor=#666666;align=center;strokeColor=#666666;strokeOpacity=100;strokeWidth=0.8;rounded=1;arcSize=24;edgeStyle=orthogonalEdgeStyle;startArrow=none;endArrow=block;endFill=1;exitX=0.988;exitY=0.5;exitPerimeter=0;entryX=0.017;entryY=0.5;entryPerimeter=0;lucidId=BuJd2J5Qn29f;" edge="1" parent="1" source="FCB02u2KYhcW3MbhH3qO-93" target="FCB02u2KYhcW3MbhH3qO-99">
          <mxGeometry width="100" height="100" relative="1" as="geometry">
            <Array as="points" />
          </mxGeometry>
        </mxCell>
        <mxCell id="FCB02u2KYhcW3MbhH3qO-98" value="Yes" style="text;html=1;resizable=0;labelBackgroundColor=default;align=center;verticalAlign=middle;fontColor=#666666;fontSize=13;" vertex="1" parent="FCB02u2KYhcW3MbhH3qO-97">
          <mxGeometry relative="1" as="geometry" />
        </mxCell>
        <mxCell id="FCB02u2KYhcW3MbhH3qO-99" value="Hide Bubble" style="html=1;overflow=block;blockSpacing=1;whiteSpace=wrap;shape=display;fontSize=13.5;fontColor=#ffffff;align=center;spacingLeft=9.7;spacingRight=9.7;spacingTop=2.8;spacing=3.8;strokeOpacity=0;fillOpacity=100;rounded=1;absoluteArcSize=1;arcSize=12;fillColor=#19967d;strokeWidth=1.5;lucidId=XuJdNlFmmWHu;" vertex="1" parent="1">
          <mxGeometry x="825" y="643" width="135" height="60" as="geometry" />
        </mxCell>
        <mxCell id="FCB02u2KYhcW3MbhH3qO-100" value="Display Count" style="html=1;overflow=block;blockSpacing=1;whiteSpace=wrap;shape=display;fontSize=13.5;fontColor=#ffffff;align=center;spacingLeft=9.7;spacingRight=9.7;spacingTop=2.8;spacing=3.8;strokeOpacity=0;fillOpacity=100;rounded=1;absoluteArcSize=1;arcSize=12;fillColor=#19967d;strokeWidth=1.5;lucidId=3uJdMmuvBUqS;" vertex="1" parent="1">
          <mxGeometry x="825" y="716" width="135" height="60" as="geometry" />
        </mxCell>
        <mxCell id="FCB02u2KYhcW3MbhH3qO-101" value="" style="html=1;jettySize=18;whiteSpace=wrap;fontSize=13;fontColor=#666666;align=center;strokeColor=#666666;strokeOpacity=100;strokeWidth=0.8;rounded=1;arcSize=24;edgeStyle=orthogonalEdgeStyle;startArrow=none;endArrow=block;endFill=1;exitX=0.5;exitY=0.994;exitPerimeter=0;entryX=0.017;entryY=0.5;entryPerimeter=0;lucidId=hvJdlPsynoYi;" edge="1" parent="1" source="FCB02u2KYhcW3MbhH3qO-93" target="FCB02u2KYhcW3MbhH3qO-100">
          <mxGeometry width="100" height="100" relative="1" as="geometry">
            <Array as="points" />
          </mxGeometry>
        </mxCell>
        <mxCell id="FCB02u2KYhcW3MbhH3qO-102" value="No" style="text;html=1;resizable=0;labelBackgroundColor=default;align=center;verticalAlign=middle;fontColor=#666666;fontSize=13;" vertex="1" parent="FCB02u2KYhcW3MbhH3qO-101">
          <mxGeometry relative="1" as="geometry" />
        </mxCell>
        <mxCell id="FCB02u2KYhcW3MbhH3qO-103" value="" style="html=1;jettySize=18;whiteSpace=wrap;fontSize=13;strokeColor=#666666;strokeOpacity=100;strokeWidth=0.8;rounded=1;arcSize=24;edgeStyle=orthogonalEdgeStyle;startArrow=none;endArrow=block;endFill=1;exitX=1;exitY=0.5;exitPerimeter=0;entryX=0.5;entryY=1.017;entryPerimeter=0;lucidId=~vJdSNmhIVIQ;" edge="1" parent="1" source="FCB02u2KYhcW3MbhH3qO-99" target="FCB02u2KYhcW3MbhH3qO-86">
          <mxGeometry width="100" height="100" relative="1" as="geometry">
            <Array as="points" />
          </mxGeometry>
        </mxCell>
        <mxCell id="FCB02u2KYhcW3MbhH3qO-104" value="" style="html=1;jettySize=18;whiteSpace=wrap;fontSize=13;strokeColor=#666666;strokeOpacity=100;strokeWidth=0.8;rounded=1;arcSize=24;edgeStyle=orthogonalEdgeStyle;startArrow=none;endArrow=block;endFill=1;exitX=1;exitY=0.5;exitPerimeter=0;entryX=0.5;entryY=1.017;entryPerimeter=0;lucidId=dwJdJBFCSBwz;" edge="1" parent="1" source="FCB02u2KYhcW3MbhH3qO-100" target="FCB02u2KYhcW3MbhH3qO-86">
          <mxGeometry width="100" height="100" relative="1" as="geometry">
            <Array as="points" />
          </mxGeometry>
        </mxCell>
        <mxCell id="FCB02u2KYhcW3MbhH3qO-105" value="Done" style="html=1;overflow=block;blockSpacing=1;whiteSpace=wrap;rounded=1;arcSize=50;fontSize=13.5;fontColor=#ef8d22;fontStyle=3;align=center;spacingLeft=9.7;spacingRight=9.7;spacingTop=2.8;spacing=3.8;strokeColor=#ef8d22;strokeOpacity=100;fillOpacity=100;fillColor=#ffffff;strokeWidth=1.5;lucidId=NBJdQseYnMQd;" vertex="1" parent="1">
          <mxGeometry x="1020" y="173" width="120" height="45" as="geometry" />
        </mxCell>
        <mxCell id="FCB02u2KYhcW3MbhH3qO-106" value="" style="html=1;jettySize=18;whiteSpace=wrap;fontSize=13;strokeColor=#666666;strokeOpacity=100;strokeWidth=0.8;rounded=1;arcSize=24;edgeStyle=orthogonalEdgeStyle;startArrow=none;endArrow=block;endFill=1;exitX=1;exitY=0.5;exitPerimeter=0;entryX=-0.006;entryY=0.5;entryPerimeter=0;lucidId=YBJd-oEkOYIk;" edge="1" parent="1" source="FCB02u2KYhcW3MbhH3qO-19" target="FCB02u2KYhcW3MbhH3qO-105">
          <mxGeometry width="100" height="100" relative="1" as="geometry">
            <Array as="points" />
          </mxGeometry>
        </mxCell>
        <mxCell id="FCB02u2KYhcW3MbhH3qO-107" value="" style="html=1;jettySize=18;whiteSpace=wrap;fontSize=13;strokeColor=#666666;strokeOpacity=100;strokeWidth=0.8;rounded=1;arcSize=24;edgeStyle=orthogonalEdgeStyle;startArrow=none;endArrow=block;endFill=1;exitX=1;exitY=0.5;exitPerimeter=0;entryX=0.5;entryY=1.017;entryPerimeter=0;lucidId=2BJdd5TKJ1CN;" edge="1" parent="1" source="FCB02u2KYhcW3MbhH3qO-20" target="FCB02u2KYhcW3MbhH3qO-105">
          <mxGeometry width="100" height="100" relative="1" as="geometry">
            <Array as="points" />
          </mxGeometry>
        </mxCell>
      </root>
    </mxGraphModel>
  </diagram>
</mxfile>
